<svg id="visual" viewBox="0 0 960 540" width="960" height="540" xmlns="http://www.w3.org/2000/svg" xmlns:xlink="http://www.w3.org/1999/xlink" version="1.1"><rect x="0" y="0" width="960" height="540" fill="#000000"></rect><path d="M0 391L22.8 393C45.7 395 91.3 399 137 391.3C182.7 383.7 228.3 364.3 274 361.7C319.7 359 365.3 373 411.2 377.3C457 381.7 503 376.3 548.8 374.7C594.7 373 640.3 375 686 371.7C731.7 368.3 777.3 359.7 823 357.7C868.7 355.7 914.3 360.3 937.2 362.7L960 365L960 541L937.2 541C914.3 541 868.7 541 823 541C777.3 541 731.7 541 686 541C640.3 541 594.7 541 548.8 541C503 541 457 541 411.2 541C365.3 541 319.7 541 274 541C228.3 541 182.7 541 137 541C91.3 541 45.7 541 22.8 541L0 541Z" fill="#fa7268"></path><path d="M0 364L22.8 372.3C45.7 380.7 91.3 397.3 137 408.3C182.7 419.3 228.3 424.7 274 417.8C319.7 411 365.3 392 411.2 379.8C457 367.7 503 362.3 548.8 367.8C594.7 373.3 640.3 389.7 686 396.5C731.7 403.3 777.3 400.7 823 398.2C868.7 395.7 914.3 393.3 937.2 392.2L960 391L960 541L937.2 541C914.3 541 868.7 541 823 541C777.3 541 731.7 541 686 541C640.3 541 594.7 541 548.8 541C503 541 457 541 411.2 541C365.3 541 319.7 541 274 541C228.3 541 182.7 541 137 541C91.3 541 45.7 541 22.8 541L0 541Z" fill="#ef5f67"></path><path d="M0 404L22.8 402.7C45.7 401.3 91.3 398.7 137 400.2C182.7 401.7 228.3 407.3 274 415C319.7 422.7 365.3 432.3 411.2 435.3C457 438.3 503 434.7 548.8 437.7C594.7 440.7 640.3 450.3 686 454.8C731.7 459.3 777.3 458.7 823 455C868.7 451.3 914.3 444.7 937.2 441.3L960 438L960 541L937.2 541C914.3 541 868.7 541 823 541C777.3 541 731.7 541 686 541C640.3 541 594.7 541 548.8 541C503 541 457 541 411.2 541C365.3 541 319.7 541 274 541C228.3 541 182.7 541 137 541C91.3 541 45.7 541 22.8 541L0 541Z" fill="#e34c67"></path><path d="M0 440L22.8 443.3C45.7 446.7 91.3 453.3 137 459.5C182.7 465.7 228.3 471.3 274 469.2C319.7 467 365.3 457 411.2 454.7C457 452.3 503 457.7 548.8 463C594.7 468.3 640.3 473.7 686 468.7C731.7 463.7 777.3 448.3 823 446.8C868.7 445.3 914.3 457.7 937.2 463.8L960 470L960 541L937.2 541C914.3 541 868.7 541 823 541C777.3 541 731.7 541 686 541C640.3 541 594.7 541 548.8 541C503 541 457 541 411.2 541C365.3 541 319.7 541 274 541C228.3 541 182.7 541 137 541C91.3 541 45.7 541 22.8 541L0 541Z" fill="#d53867"></path><path d="M0 501L22.8 500C45.7 499 91.3 497 137 494.3C182.7 491.7 228.3 488.3 274 490.7C319.7 493 365.3 501 411.2 501.5C457 502 503 495 548.8 495.3C594.7 495.7 640.3 503.3 686 507.2C731.7 511 777.3 511 823 508.8C868.7 506.7 914.3 502.3 937.2 500.2L960 498L960 541L937.2 541C914.3 541 868.7 541 823 541C777.3 541 731.7 541 686 541C640.3 541 594.7 541 548.8 541C503 541 457 541 411.2 541C365.3 541 319.7 541 274 541C228.3 541 182.7 541 137 541C91.3 541 45.7 541 22.8 541L0 541Z" fill="#c62368"></path></svg>